<svg xmlns="http://www.w3.org/2000/svg" viewBox="0 0 400 120" width="400" height="120">
  <defs>
    <linearGradient id="grad1" x1="0%" y1="0%" x2="100%" y2="100%">
      <stop offset="0%" style="stop-color:#0A1628;stop-opacity:1" />
      <stop offset="100%" style="stop-color:#0052CC;stop-opacity:1" />
    </linearGradient>
    <linearGradient id="grad2" x1="0%" y1="0%" x2="100%" y2="100%">
      <stop offset="0%" style="stop-color:#00AEEF;stop-opacity:1" />
      <stop offset="100%" style="stop-color:#0066FF;stop-opacity:1" />
    </linearGradient>
    <linearGradient id="grad3" x1="0%" y1="0%" x2="100%" y2="0%">
      <stop offset="0%" style="stop-color:#00AEEF;stop-opacity:1" />
      <stop offset="100%" style="stop-color:#0066FF;stop-opacity:1" />
    </linearGradient>
    <filter id="shadow">
      <feDropShadow dx="0" dy="2" stdDeviation="3" flood-color="#00AEEF" flood-opacity="0.4"/>
    </filter>
  </defs>

  <polygon points="55,10 90,28 90,68 55,86 20,68 20,28" fill="url(#grad1)" filter="url(#shadow)" stroke="#00AEEF" stroke-width="1.5"/>
  <line x1="55" y1="22" x2="55" y2="74" stroke="#00AEEF" stroke-width="1" opacity="0.4"/>
  <line x1="30" y1="38" x2="80" y2="38" stroke="#00AEEF" stroke-width="1" opacity="0.4"/>
  <line x1="30" y1="58" x2="80" y2="58" stroke="#00AEEF" stroke-width="1" opacity="0.4"/>
  <circle cx="55" cy="22" r="2" fill="#00AEEF" opacity="0.6"/>
  <circle cx="55" cy="74" r="2" fill="#00AEEF" opacity="0.6"/>
  <circle cx="30" cy="38" r="2" fill="#00AEEF" opacity="0.6"/>
  <circle cx="80" cy="38" r="2" fill="#00AEEF" opacity="0.6"/>
  <circle cx="30" cy="58" r="2" fill="#00AEEF" opacity="0.6"/>
  <circle cx="80" cy="58" r="2" fill="#00AEEF" opacity="0.6"/>
  <text x="55" y="57" font-family="Arial Black, Arial" font-weight="900" font-size="28" fill="url(#grad2)" text-anchor="middle" letter-spacing="-1">SM</text>
  <text x="108" y="44" font-family="Arial, sans-serif" font-weight="800" font-size="22" fill="#FFFFFF" letter-spacing="1">SOFTMASTER</text>
  <rect x="108" y="50" width="200" height="3" rx="1.5" fill="url(#grad3)"/>
  <text x="108" y="70" font-family="Arial, sans-serif" font-weight="400" font-size="11" fill="#AAAAAA" letter-spacing="3">TECHNOLOGY SOLUTIONS PVT LTD</text>
  <circle cx="108" cy="80" r="2" fill="#0066FF"/>
  <circle cx="115" cy="80" r="2" fill="#00AEEF" opacity="0.6"/>
  <circle cx="122" cy="80" r="2" fill="#0066FF" opacity="0.3"/>
</svg>
